<?xml version="1.0" encoding="utf-8"?>
<!-- Generator: Adobe Illustrator 19.0.1, SVG Export Plug-In . SVG Version: 6.00 Build 0)  -->
<svg version="1.1" id="industries_x5F_icons_1_" xmlns="http://www.w3.org/2000/svg" xmlns:xlink="http://www.w3.org/1999/xlink"
	 x="0px" y="0px" viewBox="0 0 128 128" style="enable-background:new 0 0 128 128;" xml:space="preserve">
<style type="text/css">
	.st0{display:none;}
	.st1{display:inline;}
	.st2{fill:#191919;}
	.st3{fill-rule:evenodd;clip-rule:evenodd;fill:#191919;}
	.st4{font-family:'Arial-BoldMT';}
	.st5{font-size:39.8222px;}
	.st6{display:inline;fill-rule:evenodd;clip-rule:evenodd;fill:#191919;}
</style>
<g id="_x33__8_" class="st0">
	<g id="transportation_1_" class="st1">
		<g id="_x32_">
			<g>
				<path class="st2" d="M34.8,69.6c-4.7,0-8.5,3.8-8.5,8.5s3.8,8.5,8.5,8.5c4.7,0,8.5-3.8,8.5-8.5S39.5,69.6,34.8,69.6z M34.8,82.8
					c-2.6,0-4.7-2.1-4.7-4.7c0-2.6,2.1-4.7,4.7-4.7c2.6,0,4.7,2.1,4.7,4.7C39.5,80.7,37.4,82.8,34.8,82.8z M124.2,39.5H5.6
					c-2.1,0-3.8,1.7-3.8,3.8v18.5L0,63.5v11.8c0,2.1,1.7,3.8,3.8,3.8h20.8c0-0.3,0-0.6,0-0.9c0-1,0.1-1.9,0.4-2.8H5.6
					c-1,0-1.9-0.8-1.9-1.9V63.1l1.9-1.9v-16c0-1,0.8-1.9,1.9-1.9h114.8c1,0,1.9,0.8,1.9,1.9v24.5c0,1-0.8,1.9-1.9,1.9L98,75.3h-0.5
					c0.3,0.9,0.4,1.8,0.4,2.8c0,0.3,0,0.6,0,0.9h0.3l26.1-3.8c2.1,0,3.8-1.7,3.8-3.8V43.3C128,41.2,126.3,39.5,124.2,39.5z
					 M44.8,75.3c0.3,0.9,0.4,1.8,0.4,2.8c0,0.3,0,0.6,0,0.9h32.1c0-0.3,0-0.6,0-0.9c0-1,0.1-1.9,0.4-2.8H44.8z M87.5,69.6
					c-4.7,0-8.5,3.8-8.5,8.5s3.8,8.5,8.5,8.5c4.7,0,8.5-3.8,8.5-8.5S92.2,69.6,87.5,69.6z M87.5,82.8c-2.6,0-4.7-2.1-4.7-4.7
					c0-2.6,2.1-4.7,4.7-4.7c2.6,0,4.7,2.1,4.7,4.7C92.2,80.7,90.1,82.8,87.5,82.8z"/>
			</g>
		</g>
		<g id="_x31_">
			<g>
				<path class="st2" d="M50.8,58.4h20.7V45.2H50.8V58.4z M52.7,47.1h16.9v9.4H52.7V47.1z M99.8,45.2v13.2h20.7V45.2H99.8z
					 M118.6,56.5h-16.9v-9.4h16.9V56.5z M9.4,73.4h15.1V45.2H9.4V73.4z M11.3,47.1h11.3v24.5H11.3V47.1z M28.2,58.4h18.8V45.2H28.2
					V58.4z M30.1,47.1h15.1v9.4H30.1V47.1z M75.3,58.4H96V45.2H75.3V58.4z M77.2,47.1h16.9v9.4H77.2V47.1z"/>
			</g>
		</g>
	</g>
	<g id="entertainment_1_" class="st1">
		<path id="_x33_" class="st3" d="M79.5,99.4c0,0-7.7,15.1-23.6,15.2c-12.3,0-24.6-7.2-24.5-16.2c0.1-11.4,6.6-3.2,17.8-0.7
			C62.3,100.7,79.5,99.4,79.5,99.4z"/>
		<g id="_x32__1_">
			<g>
				<path class="st2" d="M106.4,41.1c2.9-2.6,4.9-6.7,5.2-11.5c0.5-8.4-4.3-15.5-10.8-15.9c-6.5-0.4-12.2,6-12.8,14.4
					c-0.3,4,0.7,7.7,2.5,10.5c-0.9,0.5-1.9,1-2.8,1.7c-1.4-6.5-4.2-12-7.8-15.6c1.6-2.4,2.6-5.4,2.9-8.8C83.4,7.6,78.6,0.4,72.1,0
					c-6.5-0.4-12.3,6-12.8,14.4c-0.2,3.3,0.4,6.4,1.7,9c-6.7,5-11.7,15.3-12.5,27.4c0,0.6-0.1,1.1-0.1,1.7
					c-3.5-5.9-8.2-10-13.1-11.6c0.6-2.8,0.4-6.1-0.5-9.3c-2.4-8.1-9.3-13.1-15.3-11.1c-6,2-8.9,10.2-6.4,18.3
					c1.1,3.7,3.2,6.8,5.7,8.8c-4.3,6.6-6.2,16.7-4.4,27.6c0.9,5.2,2.5,10,4.6,14.1c0.2-4.3,1.1-8.5,2.6-12.3
					c-0.2-0.9-0.4-1.9-0.6-2.9c-0.9-5.5-0.8-10.7,0.1-15l20.6-5c0.4,0.6,0.9,1.3,1.3,2c3.8-1.4,7.9-2.2,12.2-2.3
					c0-0.9,0-1.7,0.1-2.6c0.4-5.4,1.6-10.3,3.4-14.3h21.6c1.6,4.4,2.3,10,1.9,16c-0.2,3.6-0.9,7-1.8,10c1.9,1.6,3.6,3.5,5.1,5.4
					c1.8-4.4,3.1-9.5,3.4-15c0.1-1.2,0.1-2.3,0.1-3.4c1.3,1.2,4,3.3,6.7,3.7c3.4,0.5,8.8-0.8,10.9-1.3c2,4.7,2.9,10.8,2.5,17.5
					c-0.9,13.9-7.7,24.8-15.1,24.3c-0.4,0-0.7-0.1-1.1-0.2c-0.2,2.3-0.6,4.5-1.2,6.6c0.6,0.1,1.2,0.2,1.8,0.3
					c11.1,0.7,21.1-13,22.2-30.6C116.5,57.9,112.7,46.8,106.4,41.1z M21.5,27.1c2.5-1,6.1,1.1,7.4,6.6c0.5,2.2,0.6,4.6,0.3,6.8
					c-0.1,0-0.2,0-0.3,0c-2.8,0.5-5.2,1.8-7.4,3.8c-0.9-1.4-1.7-3.2-2.2-5.4C18.1,33.4,19.1,28.2,21.5,27.1z M22.1,55.5
					c1.7-4.6,4.5-7.8,8-8.4c3.2-0.5,6.4,1.1,9.3,4.1L22.1,55.5z M66,14.9c0.3-4.7,2.8-8.3,5.6-8.1c2.8,0.2,4.8,4.1,4.5,8.8
					c-0.1,2.2-0.8,4.1-1.7,5.6c-1.2-0.5-2.5-0.7-3.8-0.8c-1.3-0.1-2.5,0-3.7,0.3C66.2,19,65.9,17,66,14.9z M60.3,33.7
					c2.7-4.4,6.3-6.9,10-6.7c3.4,0.2,6.3,2.7,8.4,6.7H60.3z M94.8,28.5c0.3-4.6,2.8-8.3,5.6-8.1c2.8,0.2,4.8,4.1,4.5,8.7
					c-0.3,4.6-2.8,8.3-5.6,8.1C96.5,37,94.5,33.1,94.8,28.5z M96.1,51c-3-0.5-5.2-3-6-4.1c2.1-2.1,4.6-3.2,7.1-3.1
					c3.2,0.2,6,2.5,8.1,6.1C103.3,50.5,99.2,51.4,96.1,51z"/>
			</g>
		</g>
		<g id="_x31__1_">
			<g>
				<path class="st2" d="M45.8,77.5c-1.9,0-3.4,1.5-3.4,3.4s1.5,3.4,3.4,3.4c1.9,0,3.4-1.5,3.4-3.4S47.7,77.5,45.8,77.5z M55.9,60.6
					c-16.7,0-30.3,13.6-30.3,30.3c0,16.7,13.6,30.3,30.3,30.3c16.7,0,30.3-13.6,30.3-30.3C86.2,74.2,72.6,60.6,55.9,60.6z
					 M55.9,114.6c-13,0-23.6-10.6-23.6-23.6s10.6-23.6,23.6-23.6c13,0,23.6,10.6,23.6,23.6S68.9,114.6,55.9,114.6z M59.3,74.1
					c-1.9,0-3.4,1.5-3.4,3.4c0,1.9,1.5,3.4,3.4,3.4c1.9,0,3.4-1.5,3.4-3.4C62.6,75.6,61.1,74.1,59.3,74.1z M57.6,84.2
					c-2.8,0-5.1,2.3-5.1,5.1c0,2.8,2.3,5.1,5.1,5.1c2.8,0,5.1-2.3,5.1-5.1C62.6,86.5,60.4,84.2,57.6,84.2z"/>
			</g>
		</g>
	</g>
	<g id="education_1_" class="st1">
		<g id="_x33__1_">
			<g>
				<path class="st2" d="M0,60.4v51.2h62.6V60.4H0z M56.9,105.9H5.7V66.1h51.2V105.9z"/>
			</g>
		</g>
		<g id="_x32__2_">
			<g>
				<path class="st2" d="M65.4,60.4v51.2H128V60.4H65.4z M122.3,105.9H71.1V66.1h51.2V105.9z"/>
			</g>
		</g>
		<g id="_x31__2_">
			<g>
				<path class="st2" d="M31.3,12v45.5h62.6V12H31.3z M88.2,51.9H37V17.7h51.2V51.9z"/>
			</g>
		</g>
		<text transform="matrix(1 0 0 1 50.9209 49.0186)" class="st2 st4 st5">A</text>
		<text transform="matrix(1 0 0 1 18.3584 100.0322)" class="st2 st4 st5">B</text>
		<text transform="matrix(1 0 0 1 82.4971 100.9668)" class="st2 st4 st5">C</text>
	</g>
	<g id="healthcare_1_" class="st1">
		<g id="_x32__3_">
			<g>
				<path class="st2" d="M67,64H61v9.1h-9.1v6.1H61v9.1H67v-9.1h9.1v-6.1H67V64z M64,48.8c-15.1,0-27.4,12.3-27.4,27.4
					s12.3,27.4,27.4,27.4s27.4-12.3,27.4-27.4S79.1,48.8,64,48.8z M64,97.5c-11.8,0-21.3-9.5-21.3-21.3S52.2,54.9,64,54.9
					s21.3,9.5,21.3,21.3S75.8,97.5,64,97.5z"/>
			</g>
		</g>
		<g id="_x31__3_">
			<g>
				<path class="st2" d="M121.9,36.6H94.5V24.4c0-6.7-5.5-12.2-12.2-12.2H45.7c-6.7,0-12.2,5.5-12.2,12.2v12.2H6.1
					c-3.4,0-6.1,2.7-6.1,6.1v67c0,3.4,2.7,6.1,6.1,6.1h115.8c3.4,0,6.1-2.7,6.1-6.1v-67C128,39.3,125.3,36.6,121.9,36.6z M42.7,26.4
					c0-2.8,2.4-5.1,5.3-5.1h32c2.9,0,5.3,2.3,5.3,5.1v10.2H42.7V26.4z M121.9,109.7H6.1v-67h115.8V109.7z"/>
			</g>
		</g>
	</g>
	<g id="banking_1_" class="st1">
		<g id="_x32__4_">
			<g>
				<path class="st2" d="M9.6,107.2v3.2h108.8v-3.2H9.6z M64,8L0,40v9.6h128V40L64,8z M12.8,40L64,14.4L115.2,40H12.8z M57.6,27.2
					c0,3.5,2.9,6.4,6.4,6.4c3.5,0,6.4-2.9,6.4-6.4c0-3.5-2.9-6.4-6.4-6.4C60.5,20.8,57.6,23.7,57.6,27.2z M0,120h128v-6.4H0V120z"/>
			</g>
		</g>
		<g id="_x31__4_">
			<g>
				<path class="st2" d="M19.2,59.2h3.2v38.4h-3.2v6.4h16v-6.4H32V59.2h3.2v-6.4h-16V59.2z M44.8,59.2H48v38.4h-3.2v6.4h16v-6.4
					h-3.2V59.2h3.2v-6.4h-16V59.2z M70.4,59.2h3.2v38.4h-3.2v6.4h16v-6.4h-3.2V59.2h3.2v-6.4h-16V59.2z M112,59.2v-6.4H96v6.4h3.2
					v38.4H96v6.4h16v-6.4h-3.2V59.2H112z"/>
			</g>
		</g>
	</g>
	<g id="aviation_1_" class="st1">
		<g id="_x32__5_">
			<g>
				<path class="st2" d="M77,82.6c-1.3,0-2.4,2.5-2.4,5.6l0-1L66.7,81l-1.9,2.8l9.7,6.9l0-2.4c0,3.1,1.1,5.6,2.4,5.6
					c1.3,0,2.4-2.5,2.4-5.7C79.4,85.2,78.3,82.6,77,82.6z M53.5,87.5l0,0.7c0-3.1-1.1-5.6-2.4-5.6c-1.3,0-2.4,2.5-2.4,5.7
					c0,3.1,1.1,5.7,2.4,5.7c1.3,0,2.4-2.5,2.4-5.6l0,2.3l9.7-6.5l-1.9-2.6L53.5,87.5z"/>
			</g>
		</g>
		<g id="_x31__5_">
			<g>
				<path class="st2" d="M89.1,42.1v-3.2L66.4,47V34h-3.2v13l-22.7-8.1v3.2l22.7,8.1H64h2.4L89.1,42.1z M0,59.9l15.6,3.1
					c1.9-1,4-1.5,6.2-1.5c4.2,0,8,1.9,10.5,4.9l8.2,1.6v-3.2L1.6,56.7L0,59.9z M22.7,64.8c-5.4,0-9.7,4.4-9.7,9.7
					c0,5.4,4.4,9.7,9.7,9.7s9.7-4.4,9.7-9.7C32.4,69.2,28.1,64.8,22.7,64.8z M22.7,81c-3.6,0-6.5-2.9-6.5-6.5c0-3.6,2.9-6.5,6.5-6.5
					c3.6,0,6.5,2.9,6.5,6.5C29.2,78.1,26.3,81,22.7,81z M106.1,61.6c2.2,0,4.4,0.6,6.2,1.5l15.6-3.1l-1.6-3.2l-38.9,8.1v3.2l8.2-1.6
					C98.2,63.5,101.9,61.6,106.1,61.6z M105.3,64.8c-5.4,0-9.7,4.4-9.7,9.7c0,5.4,4.4,9.7,9.7,9.7s9.7-4.4,9.7-9.7
					C115,69.2,110.7,64.8,105.3,64.8z M105.3,81c-3.6,0-6.5-2.9-6.5-6.5c0-3.6,2.9-6.5,6.5-6.5c3.6,0,6.5,2.9,6.5,6.5
					C111.8,78.1,108.9,81,105.3,81z M64,56.7c-7.6,0-13.8,2.9-13.8,6.5s7,9.7,14.6,9.7s13-6.1,13-9.7S71.6,56.7,64,56.7z M64.8,69.7
					c-6.2,0-12.1-4.1-12.1-6.5s5-4.3,11.3-4.3s11.3,1.9,11.3,4.3S71,69.7,64.8,69.7z M64,50.2c-12.1,0-21.9,7.6-21.9,17
					c0,9.4,9.8,17,21.9,17s21.9-7.6,21.9-17C85.9,57.8,76.1,50.2,64,50.2z M64,81.6c-10.7,0-19.3-6.4-19.3-14.4
					c0-8,8.6-14.4,19.3-14.4s19.3,6.4,19.3,14.4C83.3,75.2,74.7,81.6,64,81.6z"/>
			</g>
		</g>
	</g>
</g>
<g id="_x32__19_">
	<g id="car_x5F_manufacture_1_">
		<g id="_x32__6_">
			<g>
				<path class="st2" d="M28.9,43.6l9.5,5.5l1.8-3.2l-9.5-5.5L28.9,43.6z M52.5,36.6L47,27.1l-3.2,1.8l5.5,9.5L52.5,36.6z
					 M87.5,30.8l-3.2-1.8l-5.5,9.5l3.2,1.8L87.5,30.8z M67.7,23.6H64v10.9h3.7V23.6z M23.6,63.7h11v-3.7h-11V63.7z M93.4,63.7v3.6
					h11v-3.6H93.4z M64,13.5c-27.9,0-50.5,22.6-50.5,50.5c0,27.9,22.6,50.5,50.5,50.5c27.9,0,50.5-22.6,50.5-50.5
					C114.5,36.1,91.9,13.5,64,13.5z M64,110.6c-25.8,0-46.6-20.9-46.6-46.6c0-25.8,20.9-46.6,46.6-46.6c25.8,0,46.6,20.9,46.6,46.6
					C110.6,89.8,89.8,110.6,64,110.6z M99,43.7l-9.5,5.5l1.8,3.2l9.5-5.5L99,43.7z M84.2,94.3h-6.7v-6.7h-3.4v6.7h-6.7v-6.7H64v6.7
					h-6.7v-6.7h-3.4v6.7h-6.7v-6.7h-3.4v10.1h43.8V87.6h-3.4V94.3z"/>
			</g>
		</g>
		<g id="_x31__6_">
			<g>
				<path class="st2" d="M64,0C28.7,0,0,28.7,0,64c0,35.3,28.7,64,64,64c35.3,0,64-28.7,64-64C128,28.7,99.3,0,64,0z M64,121.3
					C32.3,121.3,6.7,95.7,6.7,64C6.7,32.3,32.3,6.7,64,6.7c31.7,0,57.3,25.7,57.3,57.3C121.3,95.7,95.7,121.3,64,121.3z M76,41.9
					l-9.6,15.6c-0.8-0.2-1.5-0.3-2.4-0.3c-5.6,0-10.1,4.5-10.1,10.1c0,2.5,0.9,4.8,2.4,6.5L53,79.2l5.7,3.5l3.3-5.4
					c0.6,0.1,1.3,0.2,1.9,0.2c5.6,0,10.1-4.5,10.1-10.1c0-2.3-0.8-4.4-2.1-6.2l9.7-15.8L76,41.9z"/>
			</g>
		</g>
	</g>
	<g id="metal_1_" class="st0">
		<path id="_x34_" class="st6" d="M74.3,33.3c0,0-23.3,8.9-41,20.5C-1.2,76.4,0,110.2,0,110.2h30.7c0,0-3.8-11.4,2.6-23
			C39.7,75.5,56,79.8,56,79.8s3.6-7.3,8-15.7C67.9,56.7,74.3,33.3,74.3,33.3z"/>
		<path id="_x33__3_" class="st6" d="M87.1,18h5.1v41c0,0-1.3,2.6-2.6,2.6c-1.3,0-2.6-2.6-2.6-2.6V18z"/>
		<g id="_x32__7_" class="st1">
			<g>
				<path class="st2" d="M89.6,48.7c-7.1,0-12.8,5.7-12.8,12.8c0,7.1,5.7,12.8,12.8,12.8c7.1,0,12.8-5.7,12.8-12.8
					C102.4,54.4,96.7,48.7,89.6,48.7z M89.6,70c-4.7,0-8.5-3.8-8.5-8.5c0-4.7,3.8-8.5,8.5-8.5c4.7,0,8.5,3.8,8.5,8.5
					C98.2,66.2,94.3,70,89.6,70z M89.6,56.4c-2.8,0-5.1,2.3-5.1,5.1c0,2.8,2.3,5.1,5.1,5.1c2.8,0,5.1-2.3,5.1-5.1
					C94.7,58.7,92.5,56.4,89.6,56.4z"/>
			</g>
		</g>
		<path id="_x31__7_" class="st6" d="M57.2,83.9c5.2-5.4,10.6-14.1,14.5-25c3.9-10.8,5.5-21.3,5.1-28.9c0-0.2,0.4-0.7,0.4-0.7
			l7.1,4.8l0-6.7l-9.8-6.5c0,0-0.1-0.2-0.3-0.4c-0.8-1.1-1.7-1.8-2.8-2.2c-6.6-2.5-15.6,5.8-22.7,22.8c1.1,0,6.7-2.6,7.7-2.6
			c5.1-11.7,9.4-16.6,12.8-15.4c4,1.5,2.9,18-2.6,33.3c-5.5,15.3-12.8,27.1-17.9,28.2c-5.1,1.1-7.6-2-7.6-2s-1.7,4.8,4.7,6.8
			c1.2,0.4,2.4,0.3,3.8-0.1c0.4-0.1,0.6-0.2,0.6-0.2l50.8,10.2c6.4,2.2,13.4-1.2,15.6-7.7l10.9-24.9c2.2-6.4-1.2-13.5-7.6-15.7
			l-25-17.7c0,0,0,7.9,0.2,8.1c11.4,7.7,22.8,15.4,22.8,15.4c3.2,1.1,6.3,4,5.2,7.2l-12.3,25.6c-1.1,3.2-4.6,4.9-7.8,3.8L57,84.1
			C57,84.1,57,84.1,57.2,83.9z"/>
	</g>
	<g id="physic_1_" class="st0">
		<g id="_x35_" class="st1">
			<g>
				<path class="st2" d="M105.7,18.7C93.9,6.9,64.1,17.6,39.1,42.6c-25,25-35.7,54.8-23.9,66.6c11.8,11.8,41.6,1.1,66.6-23.9
					C106.8,60.4,117.5,30.5,105.7,18.7z M76.8,80.3c-22.2,22.2-47.5,32.9-56.6,23.9c-9-9,1.7-34.4,23.9-56.6
					c22.2-22.2,47.5-32.9,56.6-23.9C109.7,32.8,99,58.1,76.8,80.3z"/>
			</g>
		</g>
		<g id="_x34__1_" class="st1">
			<g>
				<path class="st2" d="M64,33.8C28.7,33.8,0,47.3,0,64c0,16.7,28.7,30.2,64,30.2c35.3,0,64-13.5,64-30.2
					C128,47.3,99.3,33.8,64,33.8z M64,87.1C32.6,87.1,7.1,76.8,7.1,64c0-12.8,25.5-23.1,56.9-23.1c31.4,0,56.9,10.3,56.9,23.1
					C120.9,76.8,95.4,87.1,64,87.1z"/>
			</g>
		</g>
		<g id="_x33__4_" class="st1">
			<g>
				<path class="st2" d="M64,0C47.3,0,33.8,28.7,33.8,64c0,35.3,13.5,64,30.2,64c16.7,0,30.2-28.7,30.2-64C94.2,28.7,80.7,0,64,0z
					 M64,120.9c-12.8,0-23.1-25.5-23.1-56.9C40.9,32.6,51.2,7.1,64,7.1c12.8,0,23.1,25.5,23.1,56.9C87.1,95.4,76.8,120.9,64,120.9z"
					/>
			</g>
		</g>
		<g id="_x32__8_" class="st1">
			<g>
				<path class="st2" d="M85.4,42.6c-25-25-54.8-35.7-66.6-23.9C6.9,30.5,17.6,60.4,42.6,85.4s54.8,35.7,66.6,23.9
					C121.1,97.5,110.4,67.6,85.4,42.6z M104.2,104.2c-9,9-34.4-1.7-56.6-23.9C25.4,58.1,14.7,32.8,23.8,23.8c9-9,34.4,1.7,56.6,23.9
					C102.6,69.9,113.3,95.2,104.2,104.2z"/>
			</g>
		</g>
		<circle id="_x31__8_" class="st6" cx="64" cy="62.2" r="8.9"/>
	</g>
	<g id="shipping_1_" class="st0">
		<g id="_x32__9_" class="st1">
			<g>
				<path class="st2" d="M74.6,44.1c1.7-1.8,2.8-4.2,2.8-6.9c0,0-5.4-1-5.4-0.8c0,2.2-1.8,4-4,4c-2.2,0-4-1.8-4-4
					c0-1.8,1.2-3.3,2.8-3.8l4-0.6V16.8h6.7c11.2,0,20.2-6,20.2-13.5V0H37.1v3.4c0,7.4,9,13.5,20.2,13.5H64v10.7
					c-3.9,1.4-6.7,5.1-6.7,9.5c0,1.8,0.5,3.6,1.4,5.1L3.4,60.6V64v3.4V128h121.3V67.4V64v-3.4L74.6,44.1z M117.9,121.3H10.1V70.7
					h107.9V121.3z M13.4,64l50.3-16.8L114.5,64H13.4z"/>
			</g>
		</g>
		<g id="_x31__9_" class="st1">
			<g>
				<path class="st2" d="M20.2,121.3h6.7V70.7h-6.7V121.3z M40.4,121.3h6.7V70.7h-6.7V121.3z M60.6,121.3h6.7V70.7h-6.7V121.3z
					 M80.8,121.3h6.7V70.7h-6.7V121.3z M101.1,70.7v50.5h6.7V70.7H101.1z"/>
			</g>
		</g>
	</g>
	<g id="coal_x5F_mining_1_" class="st0">
		<g id="_x32__10_" class="st1">
			<g>
				<path class="st2" d="M26.4,76.4L9.6,44.8h108.8l-16.2,30.3c2.4,1,4.6,2.4,6.4,4.1L128,38.4H0l20.4,43.2
					C22.1,79.5,24.1,77.7,26.4,76.4z M36.8,89.6c-2.7,0-4.8,2.1-4.8,4.8s2.1,4.8,4.8,4.8c2.7,0,4.8-2.1,4.8-4.8S39.5,89.6,36.8,89.6
					z M73.7,92.8H57.5c0,0.5,0.1,1.1,0.1,1.6c0,1.7-0.2,3.3-0.6,4.8h17.2c-0.4-1.5-0.6-3.1-0.6-4.8C73.6,93.9,73.6,93.4,73.7,92.8z
					 M36.8,76.8c-9.7,0-17.6,7.9-17.6,17.6c0,9.7,7.9,17.6,17.6,17.6s17.6-7.9,17.6-17.6C54.4,84.7,46.5,76.8,36.8,76.8z
					 M36.8,105.6c-6.2,0-11.2-5-11.2-11.2s5-11.2,11.2-11.2S48,88.2,48,94.4S43,105.6,36.8,105.6z M94.4,76.8
					c-9.7,0-17.6,7.9-17.6,17.6c0,9.7,7.9,17.6,17.6,17.6c9.7,0,17.6-7.9,17.6-17.6C112,84.7,104.1,76.8,94.4,76.8z M94.4,105.6
					c-6.2,0-11.2-5-11.2-11.2s5-11.2,11.2-11.2c6.2,0,11.2,5,11.2,11.2S100.6,105.6,94.4,105.6z M94.4,89.6c-2.7,0-4.8,2.1-4.8,4.8
					s2.1,4.8,4.8,4.8c2.7,0,4.8-2.1,4.8-4.8S97,89.6,94.4,89.6z"/>
			</g>
		</g>
		<path id="_x31__10_" class="st6" d="M64,12.8c3,0,3.5,6.1,6.4,6.4c4.2,0.5,8.9-7.2,12.8-6.4c3.5,0.7,6.4,8.4,9.6,9.6
			c2.1,0.8,7.6-7.2,9.6-6.4c4.5,1.8,3.1,7.1,6.4,9.6c2.2,1.7,4.3-1.5,6.4,0c6.9,4.8,12.8,12.8,12.8,12.8H0c0,0,3.8-3,10.3-6.9
			c2.1-1.2,6.3-1.4,8.9-2.7c1.8-0.9,4.4-8.7,6.4-9.6c3.2-1.5,6.1,3.7,9.6,3.2c3.6-0.5,2.3-5.1,6.4-6.4c2.6-0.8,5.5,3,9.6,3.2
			C55.4,19.4,60.9,12.8,64,12.8z"/>
	</g>
	<g id="reactor_1_" class="st0">
		<g id="_x32__11_" class="st1">
			<g>
				<path class="st2" d="M110.5,50.9c0-19.3-15.6-34.9-34.9-34.9S40.7,31.6,40.7,50.9H26.2V10.2H0v107.6h128V50.9H110.5z M75.6,21.8
					c16.1,0,29.1,13,29.1,29.1H46.5C46.5,34.8,59.6,21.8,75.6,21.8z M20.4,106.2H5.8V94.5h14.5V106.2z M20.4,88.7H5.8V71.3h14.5
					V88.7z M20.4,65.5H5.8V42.2h14.5V65.5z M20.4,36.4H5.8V16h14.5V36.4z M122.2,106.2h-96V56.7h96V106.2z"/>
			</g>
		</g>
		<g id="_x31__11_" class="st1">
			<g>
				<path class="st2" d="M66.7,75.8c0.8-1.4,2.1-2.3,2.1-2.3l-5.2-8c0,0-3.1,1.8-5.2,5.1c-2.1,3.4-3.1,8.2-3.1,8.2l10.8,0
					C66,78.9,65.9,77,66.7,75.8z M92.7,76.6c-0.8-4.1-3.4-8.5-3.4-8.5l-7,8c0,0,1.3,1.3,1.6,2.8c0.4,1.6,0.1,3.2,0.1,3.2l8.6,2.1
					C92.7,84.3,93.5,80.6,92.7,76.6z M74,90.6c-1.6-0.1-3.1-0.8-3.1-0.8l-4.9,8.4c0,0,3.2,1.9,7.2,2.2c4.1,0.3,9-1.1,9-1.1l-5.2-9.6
					C77.1,89.7,75.5,90.7,74,90.6z M74.1,87.7c3.5,0,6.3-2.8,6.3-6.3c0-3.5-2.8-6.3-6.3-6.3c-3.5,0-6.3,2.8-6.3,6.3
					C67.8,84.8,70.7,87.7,74.1,87.7z"/>
			</g>
		</g>
	</g>
</g>
<g id="_x31__19_" class="st0">
	<g id="insurance_1_" class="st1">
		<path id="_x32__13_" class="st3" d="M61,69.4H67c0,0,0,28.2,0,33.5c0,7.1-9.9,13.6-18.3,9.1c-6.6-3.5-6.1-15.2-6.1-15.2h6.1
			c0,0-0.2,7.3,3,9.1c2.8,1.6,9.1,0.4,9.1-6.1C61,90.4,61,69.4,61,69.4z"/>
		<g id="_x31__12_">
			<g>
				<path class="st2" d="M42.8,50.5c-3.7,9.4-6,17.3-5.2,17.6c0.8,0.3,4.4-7.1,8.1-16.5c3.7-9.4,6-17.3,5.2-17.6
					C50.1,33.7,46.4,41.1,42.8,50.5z M67,23.6c0-3.2,0-9.1,0-9.1H61c0,0,0,6.9,0,9.1c-23.8-0.1-57,20.6-61,42.7
					c23-9.8,33.5,15.2,33.5,15.2S46.3,67.3,61,66.3c16-1.1,23.7,9.1,33.5,15.2c2.3-14.1,25.6-20.4,33.5-15.2
					C121.4,43.6,90.6,23.2,67,23.6z M91.4,72.4C82.3,66.7,75.7,59.2,61,60.2c-16.8,1.1-24.4,12.2-24.4,12.2S23,54.8,9.1,60.2
					C16.9,43.5,39,29.6,61,29.7c0-2.1,3-6.1,3-6.1s3,3.1,3,6.1c21.7-0.4,42.2,13,51.8,30.5C114.4,57.7,96.2,62.4,91.4,72.4z
					 M76.4,35.8c-0.9,0.3,1.7,8,5.8,17.3c4.1,9.3,8.1,16.5,9,16.2c0.9-0.3-1.7-8-5.8-17.3C81.3,42.8,77.3,35.5,76.4,35.8z"/>
			</g>
		</g>
	</g>
	<g id="electricity_1_" class="st1">
		<g id="_x32__14_">
			<g>
				<path class="st2" d="M54.6,7.1V0L32.1,9.8l0.1,7.9L54.6,7.1z M93.7,0L31.9,25.7l0.2,7.8L93.7,7.1V0z M93.7,21.3v-7.1L33.3,42.7
					v7.1L93.7,21.3z M95.7,33.7c-0.9-1.8-3-2.5-4.8-1.6L33.3,56.9v3.6l14.2,10.7v10.7h7.1V71.1c0,0-5.9-5.9-10.1-10.1
					c-0.3-0.3,0-1.8,0.3-1.9c17.7-7.4,49.2-20.7,49.2-20.7C95.9,37.6,96.6,35.5,95.7,33.7z M75.9,71.1v10.7h7.1V71.1l-6.7-11.6
					l17.4-6.2v-7.1L64.1,56L75.9,71.1z"/>
			</g>
		</g>
		<g id="_x31__13_">
			<g>
				<path class="st2" d="M93.7,88.9H33.3c0,0-0.6,10.7,8.6,10.7c10.3,0,34.5,0,44.3,0C94.7,99.6,93.7,88.9,93.7,88.9z M43.9,110.2
					h39.1v-7.1H43.9V110.2z M47.5,120.9h6.8v7.1h18.2v-7.1h6.8v-7.1H47.5V120.9z"/>
			</g>
		</g>
	</g>
	<g id="wind_1_" class="st1">
		<g id="_x32__15_">
			<g>
				<path class="st2" d="M41.1,32.2c3.9-2.1,1-11.2-3.7-8.7C20.8,32.1,10.6,50.4,13.1,70c0.4,3,9.6,0.4,9.4-1.2
					C20.5,53.5,28.3,39.2,41.1,32.2z M90.8,22.9c-2.6-1.4-5.8,7.6-4.4,8.4c13.3,7.1,20.3,21.6,18.5,36c-0.5,4.4,8.4,7.1,9.1,1.9
					C116.6,50.7,107.9,32,90.8,22.9z M85.2,110.1c-12.2,9.9-28.7,10.6-41.6,3.2c-3.9-2.3-10.2,5.1-5.6,7.9
					c16.3,9.9,37.5,9.1,53.2-3.5C93.6,115.8,86.5,109.1,85.2,110.1z"/>
			</g>
		</g>
		<g id="_x31__14_">
			<g>
				<path class="st2" d="M76.6,53.7c0,0,0-7,0-12.6C76.6,18.4,64,0,64,0S51.4,18.4,51.4,41.1c0,5.6,0,12.6,0,12.6s7.4-3.2,12.6-3.2
					C69.3,50.5,76.6,53.7,76.6,53.7z M57.7,41.1C57.7,21.9,64,9.5,64,9.5s6.3,12.4,6.3,31.6c0,0.8,0,3.2,0,3.2s-3,0-6.3,0
					c-3.3,0-6.3,0-6.3,0S57.7,41.9,57.7,41.1z M95.3,73c-4.9-2.8-10.9-6.3-10.9-6.3s-1,8-3.6,12.5c-2.6,4.6-9.1,9.4-9.1,9.4
					s6.1,3.5,10.9,6.3c19.6,11.3,41.4,9.4,41.4,9.4S114.9,84.3,95.3,73z M85.8,89.4C85.1,89,83,87.8,83,87.8s1.5-2.6,3.2-5.5
					c1.7-2.9,3.2-5.5,3.2-5.5s2,1.2,2.7,1.6c16.6,9.6,24.2,21.3,24.2,21.3S102.4,99,85.8,89.4z M47.6,79.3
					C44.9,74.8,44,66.8,44,66.8s-6.1,3.5-10.9,6.3C13.4,84.5,4,104.3,4,104.3S26,106.4,45.7,95c4.9-2.8,10.9-6.3,10.9-6.3
					S50.2,83.9,47.6,79.3z M42.5,89.6C25.9,99.2,12,99.9,12,99.9s7.6-11.7,24.2-21.3c0.7-0.4,2.7-1.6,2.7-1.6s1.5,2.6,3.2,5.5
					c1.7,2.9,3.2,5.5,3.2,5.5S43.2,89.1,42.5,89.6z M76.7,69.5c0-7-5.7-12.6-12.6-12.6c-7,0-12.6,5.7-12.6,12.6
					c0,7,5.7,12.6,12.6,12.6C71,82.2,76.7,76.5,76.7,69.5z"/>
			</g>
		</g>
	</g>
	<g id="gas_1_" class="st1">
		<g id="_x32__16_">
			<g>
				<path class="st2" d="M103.9,26.5C101,30.4,93,37.4,93,37.4S62.3-7.5,42.2,1.1c6.2,5.8-10.9,50.8-10.9,50.8l-10.9-7.3
					c0,0-3.6,17.2-3.6,21.8C16.9,106.4,36,128,64,128c28,0,47.1-21.6,47.1-61.6C111.1,47.4,107.1,33.4,103.9,26.5z M64,120.7
					c-24,0-39.9-18.3-39.9-54.4c0-6.4,0-10.9,0-10.9L35,62.7c0,0,12.2-28.9,14.5-54.4C66.3,6.8,93,51.9,93,51.9s7.1-11.1,7.3-10.9
					c4.7,8.8,3.6,13.9,3.6,25.4C103.9,102.4,88,120.7,64,120.7z"/>
			</g>
		</g>
		<path id="_x31__15_" class="st3" d="M42.2,95.4c0,0-13.6-15.1,0-36.3c13.4-20.9,12.6-42.6,10.9-43.5c-0.5-0.3,25.3,13.3,37.4,42.2
			c7.2,17-8.4,34-8.4,34s3.3,7.6-5.8-23.9C70.5,47.8,60.3,41,60.4,41c0.9-0.6,4.1,11.5-3.6,25.4C48.6,80.9,42.3,95.4,42.2,95.4z"/>
	</g>
	<g id="solar_1_" class="st1">
		<g id="_x32__17_">
			<g>
				<path class="st2" d="M54.9,86.9h34.3L77.7,27.4H11.4L0,86.9h36.6v13.7H22.9v4.6h45.7v-4.6H54.9V86.9z M84.6,82.3H64v-9.1h18.9
					L84.6,82.3z M82.1,68.6H64v-9.1h16.4L82.1,68.6z M77.9,45.7l1.7,9.1H64v-9.1H77.9z M77.1,41.1H64V32h11.4L77.1,41.1z M45.7,32
					h13.7v9.1H45.7V32z M45.7,45.7h13.7v9.1H45.7V45.7z M45.7,59.4h13.7v9.1H45.7V59.4z M45.7,73.1h13.7v9.1H45.7V73.1z M27.4,32
					h13.7v9.1H27.4V32z M27.4,45.7h13.7v9.1H27.4V45.7z M27.4,59.4h13.7v9.1H27.4V59.4z M22.9,82.3H4.6l1.7-9.1h16.6V82.3z
					 M22.9,68.6H7.1l1.7-9.1h14.1V68.6z M22.9,54.9H9.6l1.7-9.1h11.6V54.9z M22.9,41.1H12.1l1.7-9.1h9.1V41.1z M27.4,82.3v-9.1h13.7
					v9.1H27.4z M50.3,100.6h-9.1V86.9h9.1V100.6z"/>
			</g>
		</g>
		<g id="_x31__16_">
			<g>
				<path class="st2" d="M90.1,59.1l1.6,1.6l4.8-4.8L95,54.3L90.1,59.1z M91.4,43.4h-6.9v2.3h6.9V43.4z M107.4,22.9h-2.3v6.9h2.3
					V22.9z M122.4,30l-1.6-1.6l-4.8,4.8l1.6,1.6L122.4,30z M116,55.9l4.8,4.8l1.6-1.6l-4.8-4.9L116,55.9z M121.1,43.4v2.3h6.9v-2.3
					H121.1z M106.3,32c-6.9,0-12.6,5.6-12.6,12.6c0,6.9,5.6,12.6,12.6,12.6c6.9,0,12.6-5.6,12.6-12.6C118.9,37.6,113.2,32,106.3,32z
					 M106.3,52.6c-4.4,0-8-3.6-8-8c0-4.4,3.6-8,8-8c4.4,0,8,3.6,8,8C114.3,49,110.7,52.6,106.3,52.6z M105.1,66.3h2.3v-6.9h-2.3
					V66.3z M96.6,33.3l-4.8-4.8L90.1,30l4.8,4.9L96.6,33.3z"/>
			</g>
		</g>
	</g>
	<g id="oil_1_" class="st1">
		<g id="_x33__7_">
			<path class="st2" d="M103.1,49.8c0,0-21.3,22.2-21.3,30.2c0,16.7,9.6,26.7,21.3,26.7c11.8,0,21.3-10,21.3-26.7
				C124.4,71.1,103.1,49.8,103.1,49.8z M103.1,99.6c-7.9,0-14.2-6-14.2-17.8c0-7.7,14.2-24.9,14.2-24.9s14.7,18.6,14.2,24.9
				C116.5,93.5,111,99.6,103.1,99.6z M95,75.4c0,0,0.1,6,1.7,10.7c1.5,4.7,2.8,6.6,5.6,5.6c2.7-0.9,0-3.2-2.2-6.8
				C97.5,80.8,95,75.4,95,75.4z"/>
		</g>
		<g id="_x32__18_">
			<path class="st2" d="M109.4,115c0.5,0.6,0.8,1.4,0.8,2.3c0,2-1.6,3.6-3.5,3.6h-96c-2,0-3.6-1.6-3.6-3.6c0-2,1.6-3.5,3.6-3.5h77.9
				c-2.7-1.6-4.3-3.9-6.8-7.1c0,0-3.6-2.7-7.1-10.7c-3.6-8-0.5-21.3-0.5-21.3c0.5-2.4,1.2-4.8,2.1-7.1H10.7c-2,0-3.6-1.6-3.6-3.6
				s1.6-3.6,3.6-3.6h69c1.5-2.6,3.2-5,4.9-7.1c0,0,3.6-4.6,7.8-7.1c4.2-2.5,7.1-3.6,7.1-3.6v0.1c2.5,0,4.8,0.4,7.1,1.2V21.3
				c5.9,0,10.7-4.8,10.7-10.7c0-5.9-4.8-10.7-10.7-10.7h-96C4.8,0,0,4.8,0,10.7c0,5.9,4.8,10.7,10.7,10.7v24.9h7.1V21.3h24.9v32h-32
				C4.8,53.3,0,58.1,0,64s4.8,10.7,10.7,10.7v24.9h7.1V74.7h24.9v32h-32c-5.9,0-10.7,4.8-10.7,10.7c0,5.9,4.8,10.7,10.7,10.7h96
				c5.9,0,10.7-4.8,10.7-10.7c0-2.3-0.8-4.5-2-6.2C113.5,112.7,111.5,114,109.4,115z M10.7,14.2c-2,0-3.6-1.6-3.6-3.5
				c0-2,1.6-3.6,3.6-3.6h96c2,0,3.5,1.6,3.5,3.6c0,2-1.6,3.5-3.5,3.5H10.7z"/>
		</g>
	</g>
</g>
</svg>
