<?xml version="1.0" encoding="utf-8"?>
<!-- Generator: Adobe Illustrator 16.0.0, SVG Export Plug-In . SVG Version: 6.00 Build 0)  -->
<!DOCTYPE svg PUBLIC "-//W3C//DTD SVG 1.1//EN" "http://www.w3.org/Graphics/SVG/1.1/DTD/svg11.dtd">
<svg version="1.1" id="Слой_1" xmlns="http://www.w3.org/2000/svg" xmlns:xlink="http://www.w3.org/1999/xlink" x="0px" y="0px"
	 width="512px" height="512px" viewBox="0 0 512 512" enable-background="new 0 0 512 512" xml:space="preserve">
<g id="thermometer_1">
	<g>
		<path fill="#F5F7FA" d="M138.677,501.32c-35.289,0-63.998-28.719-63.998-63.997c0-16.844,6.491-32.75,18.28-44.781l3.047-3.109
			V53.334c0-23.53,19.14-42.67,42.671-42.67c23.521,0,42.662,19.14,42.662,42.67v336.098l3.047,3.109
			c11.797,12.031,18.288,27.938,18.288,44.781C202.674,472.602,173.964,501.32,138.677,501.32z"/>
		<path fill="#434A54" d="M116.45,224.001c0,5.89-4.773,10.656-10.664,10.656c-5.89,0-10.663-4.766-10.663-10.656
			s4.773-10.671,10.663-10.671C111.677,213.33,116.45,218.111,116.45,224.001z"/>
		<path fill="#434A54" d="M182.229,224.001c0,5.89-4.773,10.656-10.664,10.656s-10.672-4.766-10.672-10.656
			s4.781-10.671,10.672-10.671S182.229,218.111,182.229,224.001z"/>
		<path fill="#ED5564" d="M138.677,458.649c-11.766,0-21.336-9.562-21.336-21.326c0-11.766,9.57-21.328,21.336-21.328
			c11.765,0,21.326,9.563,21.326,21.328C160.003,449.088,150.441,458.649,138.677,458.649z"/>
		<path fill="#DA4453" d="M138.677,405.323c-17.672,0-32,14.328-32,32c0,17.67,14.328,31.997,32,31.997
			c17.671,0,31.998-14.327,31.998-31.997C170.675,419.651,156.348,405.323,138.677,405.323z M138.677,447.994
			c-5.883,0-10.672-4.797-10.672-10.671c0-5.891,4.789-10.672,10.672-10.672c5.882,0,10.663,4.781,10.663,10.672
			C149.34,443.197,144.559,447.994,138.677,447.994z"/>
		<g>
			<path fill="#DA4453" d="M138.677,426.651c-5.891,0-10.672-4.766-10.672-10.656V117.332c0-5.89,4.781-10.671,10.672-10.671
				c5.89,0,10.663,4.781,10.663,10.671v298.663C149.34,421.886,144.566,426.651,138.677,426.651z"/>
		</g>
		<path fill="#E6E9ED" d="M192.003,385.073V53.334c0-29.452-23.875-53.327-53.326-53.327c-29.453,0-53.335,23.875-53.335,53.327
			v331.739c-13.194,13.469-21.335,31.906-21.335,52.25c0,41.231,33.429,74.669,74.67,74.669c41.232,0,74.661-33.438,74.661-74.669
			C213.338,416.979,205.197,398.542,192.003,385.073z M138.677,490.648c-29.406,0-53.335-23.922-53.335-53.325
			c0-14.031,5.414-27.297,15.241-37.328l6.094-6.219v-8.703V53.334c0-17.64,14.352-31.999,32-31.999
			c17.64,0,31.998,14.358,31.998,31.999v331.739v8.703l6.094,6.219c9.828,10.031,15.234,23.297,15.234,37.328
			C192.003,466.727,168.081,490.648,138.677,490.648z"/>
	</g>
	<path fill="#F6BB42" d="M330.67,139.441c-5.891,0-10.671,4.781-10.671,10.671v21.327c0,5.891,4.78,10.672,10.671,10.672
		s10.671-4.781,10.671-10.672v-21.327C341.341,144.223,336.561,139.441,330.67,139.441z"/>
	<path fill="#F6BB42" d="M330.67,331.435c-5.891,0-10.671,4.781-10.671,10.656v21.343c0,5.891,4.78,10.656,10.671,10.656
		s10.671-4.766,10.671-10.656v-21.343C341.341,336.216,336.561,331.435,330.67,331.435z"/>
	<path fill="#FFCE54" d="M247.704,173.815c-4.164,4.156-4.164,10.906,0,15.078l15.085,15.078c4.164,4.172,10.93,4.172,15.086,0
		c4.155-4.156,4.155-10.906,0-15.078l-15.086-15.078C258.626,169.643,251.868,169.643,247.704,173.815z"/>
	<path fill="#FFCE54" d="M383.465,309.561c-4.156,4.172-4.156,10.922,0,15.093l15.094,15.078c4.156,4.172,10.906,4.172,15.078,0
		s4.172-10.922,0-15.078l-15.078-15.093C394.387,305.405,387.621,305.405,383.465,309.561z"/>
	<path fill="#F6BB42" d="M213.338,256.781c0,5.891,4.773,10.656,10.671,10.656h21.328c5.891,0,10.664-4.766,10.672-10.656
		c-0.008-5.906-4.781-10.672-10.672-10.672h-21.328C218.111,246.109,213.338,250.875,213.338,256.781z"/>
	<path fill="#F6BB42" d="M405.34,256.781c0,5.891,4.766,10.656,10.656,10.656h21.343c5.874,0,10.654-4.766,10.654-10.656
		c0-5.906-4.78-10.672-10.654-10.672h-21.343C410.105,246.109,405.34,250.875,405.34,256.781z"/>
	<path fill="#FFCE54" d="M247.704,339.731c4.164,4.172,10.922,4.172,15.085,0l15.086-15.078c4.155-4.171,4.155-10.921,0-15.093
		c-4.156-4.155-10.922-4.155-15.086,0l-15.085,15.093C243.54,328.81,243.54,335.56,247.704,339.731z"/>
	<path fill="#FFCE54" d="M383.465,203.97c4.156,4.172,10.922,4.172,15.094,0l15.078-15.078c4.172-4.171,4.172-10.921,0-15.078
		c-4.172-4.172-10.922-4.172-15.078,0l-15.094,15.078C379.309,193.064,379.309,199.814,383.465,203.97z"/>
	<path fill="#FFCE54" d="M330.67,310.092c-29.405,0-53.326-23.905-53.326-53.311c0-29.421,23.921-53.342,53.326-53.342
		c29.404,0,53.326,23.921,53.326,53.342C383.996,286.187,360.074,310.092,330.67,310.092z"/>
	<path fill="#F6BB42" d="M330.67,192.783c-35.358,0-63.998,28.64-63.998,63.998c0,35.343,28.64,63.998,63.998,63.998
		c35.342,0,63.998-28.655,63.998-63.998C394.668,221.423,366.012,192.783,330.67,192.783z M330.67,299.437
		c-23.515,0-42.671-19.141-42.671-42.655c0-23.531,19.156-42.67,42.671-42.67s42.67,19.14,42.67,42.67
		C373.34,280.296,354.185,299.437,330.67,299.437z"/>
</g>
</svg>
